<svg xmlns="http://www.w3.org/2000/svg" viewBox="0 0 314.53 66.37"><defs><style>.cls-1,.cls-4{fill:#fff;}.cls-2{fill:#fbb040;}.cls-3{fill:#bd8657;}.cls-4{fill-rule:evenodd;}</style></defs><g id="Layer_2" data-name="Layer 2"><g id="Layer_1-2" data-name="Layer 1"><path class="cls-1" d="M84.9,14.88l-4.11,4.89a9.4,9.4,0,0,0-6.38-2.58c-4.53,0-7.73,3.66-7.73,12.41,0,8.59,3.14,12.25,7.88,12.25,2.83,0,4.89-1.39,7-3l3.81,4.94a15.72,15.72,0,0,1-11.17,4.58c-9.78,0-16.32-6.58-16.32-18.78C57.83,17.66,64.73,11,73.89,11A15.84,15.84,0,0,1,84.9,14.88Z"/><path class="cls-1" d="M112.6,33.87c0,8.75-5,14.51-13.38,14.51S85.84,43,85.84,33.82c0-8.75,5-14.52,13.38-14.52S112.6,24.66,112.6,33.87Zm-18.32,0c0,6.07,1.64,8.59,4.94,8.59s4.94-2.62,4.94-8.54-1.65-8.6-4.94-8.6S94.28,27.9,94.28,33.82Z"/><path class="cls-1" d="M124.59,18.07v2.11H131l-.88,5.66h-5.56V47.51h-8.13V25.84h-4.12V20.18h4.12V17.76c0-5.25,3.45-9.32,10.45-9.32a16.72,16.72,0,0,1,7.46,1.75l-2.21,5.31a9.59,9.59,0,0,0-4.27-1C125.52,14.47,124.59,15.5,124.59,18.07Z"/><path class="cls-1" d="M142.92,18.07v2.11h6.43l-.87,5.66h-5.56V47.51h-8.13V25.84h-4.12V20.18h4.12V17.76c0-5.25,3.44-9.32,10.44-9.32a16.76,16.76,0,0,1,7.47,1.75l-2.22,5.31a9.56,9.56,0,0,0-4.27-1C143.84,14.47,142.92,15.5,142.92,18.07Z"/><path class="cls-1" d="M175.19,36.24H158.26c.56,4.89,2.88,6.22,6.23,6.22A11.08,11.08,0,0,0,171,40.05l3.35,4.53a16.82,16.82,0,0,1-10.66,3.8C154.6,48.38,150,42.52,150,34c0-8.18,4.48-14.67,12.77-14.67,7.82,0,12.61,5.15,12.61,14A28.19,28.19,0,0,1,175.19,36.24ZM167.37,31c-.05-3.71-1.19-6.28-4.43-6.28-2.73,0-4.32,1.75-4.68,6.64h9.11Z"/><path class="cls-1" d="M203.71,36.24H186.78c.56,4.89,2.88,6.22,6.22,6.22a11.11,11.11,0,0,0,6.54-2.41l3.34,4.53a16.77,16.77,0,0,1-10.65,3.8c-9.11,0-13.74-5.86-13.74-14.41,0-8.18,4.48-14.67,12.76-14.67,7.83,0,12.61,5.15,12.61,14A28.22,28.22,0,0,1,203.71,36.24ZM195.88,31c0-3.71-1.18-6.28-4.42-6.28-2.73,0-4.32,1.75-4.68,6.64h9.1Z"/><path class="cls-2" d="M218.33,18.33V47.51h-8.44V18.33h-9.22V11.84H228l-.82,6.49Z"/><path class="cls-2" d="M251.27,33.87c0,8.75-5,14.51-13.38,14.51S224.51,43,224.51,33.82c0-8.75,5-14.52,13.38-14.52S251.27,24.66,251.27,33.87Zm-18.32,0c0,6.07,1.64,8.59,4.94,8.59s4.94-2.62,4.94-8.54-1.65-8.6-4.94-8.6S233,27.9,233,33.82Z"/><path class="cls-1" d="M283.59,15.34l-4.37,4.58a10.14,10.14,0,0,0-7.15-2.83c-5,0-8.7,3.71-8.7,12.56,0,9.37,2.47,12.56,7.41,12.56A9.7,9.7,0,0,0,275.62,41V32.94H271l-.83-6H283.8V44.63a24.27,24.27,0,0,1-13,3.75c-10.76,0-16.21-6.53-16.21-18.73S262.18,11,271.65,11A17.48,17.48,0,0,1,283.59,15.34Z"/><path class="cls-1" d="M314.53,33.87c0,8.75-5,14.51-13.38,14.51S287.77,43,287.77,33.82c0-8.75,5-14.52,13.38-14.52S314.53,24.66,314.53,33.87Zm-18.32,0c0,6.07,1.65,8.59,4.94,8.59s4.94-2.62,4.94-8.54-1.65-8.6-4.94-8.6S296.21,27.9,296.21,33.82Z"/><path class="cls-3" d="M43.88,15.39h-.05A22.45,22.45,0,0,0,.14,24.32l-.14,0a51.64,51.64,0,0,0,7.78,20C9.63,46.6,11,48.79,13,50.82,16.9,50,33.52,46,44.3,34.82,46.51,22.43,43.88,15.39,43.88,15.39Zm-17.7,24.5A17.81,17.81,0,1,1,40,18.8,17.81,17.81,0,0,1,26.18,39.89Z"/><path class="cls-1" d="M17.4,55.67A11.44,11.44,0,0,1,5.33,50.25a10.37,10.37,0,0,0,9.85,3A46.83,46.83,0,0,0,32,45.91c5.71-3.82,15.15-12.22,17.15-15.17,0,0-3,5.5-4.93,7.36,0,0-3.38,15.45-12.34,28.27C31.86,66.37,20.74,59.49,17.4,55.67Z"/><path class="cls-4" d="M20.48,24.17a18.1,18.1,0,0,1-2.62.35,17.85,17.85,0,0,1-4-.21,15.69,15.69,0,0,1-3-.78A11.67,11.67,0,0,1,9,22.68c-.36-.22-1.1-.67-.8-1.36L8.38,21l.42-.11a2.4,2.4,0,0,1,.93.08l.48.12c.36.08.78.18,1.29.28a19.88,19.88,0,0,0,2.67.37,17.9,17.9,0,0,0,3.44-.07c.51-.06,1-.14,1.53-.25a14.5,14.5,0,0,0,1.8-.48,17.53,17.53,0,0,0,3.43-1.53,19,19,0,0,0,1.91-1,15.41,15.41,0,0,0,2.77-2.18,27.27,27.27,0,0,0-5.28-.28,20.82,20.82,0,0,0-2.42,0,17.56,17.56,0,0,0-2.23.34l-.89.19-.41.08c-.54.08-.9-.07-1.06-.44-.1-.22-.18-.65.41-1.1a4.91,4.91,0,0,1,.8-.49,11.52,11.52,0,0,1,2.92-1l.11,0a16.83,16.83,0,0,1,2.71-.31,22.38,22.38,0,0,1,3.73.39,26.42,26.42,0,0,1,4.15,1.14l.83.3-.46.75A20.9,20.9,0,0,1,28,20.47,19.5,19.5,0,0,1,26,22.07a19.36,19.36,0,0,1-4.14,1.76C21.38,24,20.93,24.07,20.48,24.17Z"/><path class="cls-4" d="M23.3,34a12.38,12.38,0,0,1-9.36-1.71,12.2,12.2,0,0,1-2.5-2.14A11.4,11.4,0,0,1,9.8,27.79a10.92,10.92,0,0,1-.8-2,6.54,6.54,0,0,1-.25-1.42c0-.7.18-1.11.64-1.21.63-.13.93.47,1.08.76l.18.39L11,25a11.5,11.5,0,0,0,.91,1.55,10.5,10.5,0,0,0,6.22,4.37,10.44,10.44,0,0,0,2.44.28A10.05,10.05,0,0,0,22.62,31a4.7,4.7,0,0,0,.51-.12l.33-.09A10.39,10.39,0,0,0,28,27.91a10.09,10.09,0,0,0,1.55-2.21,10.68,10.68,0,0,0,.86-2.24,11.62,11.62,0,0,0,.34-2.15,15.12,15.12,0,0,0,0-1.69c0-.25,0-.48,0-.68s0-.34,0-.47c0-.29-.06-1,.55-1.16l.07,0c.63-.13,1,.51,1.07.72a6.21,6.21,0,0,1,.48,1.27,10.65,10.65,0,0,1,.34,2A11.74,11.74,0,0,1,33,24,12.17,12.17,0,0,1,32.12,27a12.69,12.69,0,0,1-1.88,3,12.43,12.43,0,0,1-2.57,2.28,12.75,12.75,0,0,1-3.29,1.57l-.45.12Z"/><path class="cls-4" d="M37.33,24.39c-.17,0-.34.06-.49.08a4.65,4.65,0,0,1-1.63-.11,3.12,3.12,0,0,1-1-.47.93.93,0,0,1-.45-1.12.87.87,0,0,1,.68-.53,1.7,1.7,0,0,1,.26,0l.26,0,.47,0a3.78,3.78,0,0,0,.51-.08,3.34,3.34,0,0,0,.4-.1,3.24,3.24,0,0,0,1-.51,2.79,2.79,0,0,0,.74-.92,2.62,2.62,0,0,0,.31-1.24,2.8,2.8,0,0,0-.16-.9,2.41,2.41,0,0,0-.36-.65,2.62,2.62,0,0,0-1.35-1,2.53,2.53,0,0,0-.92-.13,2.76,2.76,0,0,0-.57.06l-.26.07a4,4,0,0,0-.74.33,4.46,4.46,0,0,0-.56.38l-.13.11-.33.24a1.05,1.05,0,0,1-.41.18A.78.78,0,0,1,32,18a.88.88,0,0,1-.42-1,2.32,2.32,0,0,1,.27-.79,4,4,0,0,1,.66-.92,5.25,5.25,0,0,1,1.19-.9A4.79,4.79,0,0,1,35,13.91l.27-.05a5.27,5.27,0,0,1,1.94.06,5.41,5.41,0,0,1,1.65.67,5.42,5.42,0,0,1,2.24,2.74,5.26,5.26,0,0,1,.33,2,5.41,5.41,0,0,1-.8,2.7,5.17,5.17,0,0,1-1.76,1.75A4.86,4.86,0,0,1,37.33,24.39Z"/><path class="cls-4" d="M25.22,38l-.92.18a48.28,48.28,0,0,1-5.56.74,39.84,39.84,0,0,1-4,.14,25.67,25.67,0,0,1-3.59-.28A11.87,11.87,0,0,1,8.21,38,6,6,0,0,1,7,37.38a3.73,3.73,0,0,1-.9-1,2.93,2.93,0,0,1-.42-1.31A3.17,3.17,0,0,1,6,33.75a4.84,4.84,0,0,1,.79-1.24,6,6,0,0,1,1-.91,1.86,1.86,0,0,1,.59-.29l.38-.08.34.29c.45.46.09,1-.06,1.28L8.86,33c-.12.18-.26.41-.41.67a3.39,3.39,0,0,0-.35.78.79.79,0,0,0,0,.35.37.37,0,0,0,.08.19,1.38,1.38,0,0,0,.33.27,3.21,3.21,0,0,0,.68.3,10.39,10.39,0,0,0,2.33.44,26.76,26.76,0,0,0,3.23.1c1.15,0,2.42-.1,3.75-.24,1.79-.17,3.55-.43,5.24-.75l1-.2,1.48-.34a41.7,41.7,0,0,0,6.59-2.15c1-.43,1.84-.82,2.53-1.19a15.29,15.29,0,0,0,2-1.29,6.08,6.08,0,0,0,1.11-1c.07-.11.15-.24.21-.36a.18.18,0,0,0,0-.08c0-.06,0-.11-.14-.2A2,2,0,0,0,38.1,28a3.7,3.7,0,0,0-.42-.19l-.06,0c-.37-.17-1-.44-.85-1.07a.79.79,0,0,1,.66-.63h.07A3,3,0,0,1,38,26a4.88,4.88,0,0,1,.75.12,4.11,4.11,0,0,1,1,.41,2.8,2.8,0,0,1,.81.72,2.37,2.37,0,0,1,.4,1,3,3,0,0,1-.09,1.08,3.27,3.27,0,0,1-.43.93A7.4,7.4,0,0,1,39,32a16.46,16.46,0,0,1-2.27,1.67A27,27,0,0,1,34,35.15,38.92,38.92,0,0,1,27,37.64Z"/><path class="cls-4" d="M18.48,19.44l-.24,0a4.91,4.91,0,0,1-1,0,6.32,6.32,0,0,1-1.33-.24,6.74,6.74,0,0,1-2.81-1.56,4.72,4.72,0,0,1-1-1.25,4.67,4.67,0,0,1-.52-1.74,4.92,4.92,0,0,1,.39-2,5.64,5.64,0,0,1,1.09-1.65l0,0,.05,0a8.87,8.87,0,0,0,1.25-1.1,4.21,4.21,0,0,0,.8-1.15,2.9,2.9,0,0,0,.26-1,3.28,3.28,0,0,0-.06-1,4.39,4.39,0,0,0-.48-1.24,7.74,7.74,0,0,0-.74-1.13,13.38,13.38,0,0,0-1-1.15l-.73-.72-.14-.14c-.64-.63-1.19-1.17-.8-1.79l.16-.25L12,.24a1.35,1.35,0,0,1,.62,0,5.11,5.11,0,0,1,.91.38,11.24,11.24,0,0,1,1.21.74,11.07,11.07,0,0,1,1.44,1.22A8.65,8.65,0,0,1,17.38,4a7.49,7.49,0,0,1,.92,2,6.19,6.19,0,0,1,.22,2,6.08,6.08,0,0,1-.47,2,7.34,7.34,0,0,1-1.27,1.95,9.63,9.63,0,0,1-1.61,1.41,3.22,3.22,0,0,0-.46.67,1,1,0,0,0-.13.51v.1a1,1,0,0,0,.13.52,2.94,2.94,0,0,0,.4.62,4,4,0,0,0,.77.69,6.43,6.43,0,0,0,.87.5,8.31,8.31,0,0,0,.87.35c.27.09.51.16.71.21l.1,0,.46.13A.84.84,0,0,1,19,19.29,2.71,2.71,0,0,1,18.48,19.44Z"/><path class="cls-4" d="M23.44,17.42a1.14,1.14,0,0,1-.45,0,3,3,0,0,1-.74-.26,5.56,5.56,0,0,1-.88-.55,5.91,5.91,0,0,1-1-1,3.74,3.74,0,0,1-.59-1,3.64,3.64,0,0,1-.24-1.39A4.48,4.48,0,0,1,20.25,11a11,11,0,0,1,1.08-1.38l.47-.5c.26-.28.51-.54.72-.8a3,3,0,0,0,.53-.84.84.84,0,0,0,.07-.32,1.16,1.16,0,0,0-.05-.39,2.77,2.77,0,0,0-.24-.62l-.24-.43-.09-.15A3.51,3.51,0,0,1,22.24,5a.89.89,0,0,1,.13-.93.78.78,0,0,1,.47-.27.92.92,0,0,1,.49,0,2.61,2.61,0,0,1,.66.29,4.26,4.26,0,0,1,.76.6,4.52,4.52,0,0,1,.79,1A3.47,3.47,0,0,1,25.94,7a3.89,3.89,0,0,1-.05,1.23,5.42,5.42,0,0,1-.93,2,17,17,0,0,1-1.2,1.41l-.1.12a9.68,9.68,0,0,0-.82,1,1.94,1.94,0,0,0-.33.67v.07a.79.79,0,0,0,0,.26,2,2,0,0,0,.16.44,6,6,0,0,0,.44.72l.31.4.18.23a4.31,4.31,0,0,1,.37.58.93.93,0,0,1,0,1A.9.9,0,0,1,23.44,17.42Z"/></g></g></svg>