<?xml version="1.0" encoding="utf-8"?>
<!-- Generator: Adobe Illustrator 25.2.0, SVG Export Plug-In . SVG Version: 6.00 Build 0)  -->
<svg version="1.1" id="Layer_1" xmlns="http://www.w3.org/2000/svg" xmlns:xlink="http://www.w3.org/1999/xlink" x="0px" y="0px"
	 viewBox="0 0 16 16" style="enable-background:new 0 0 16 16;" xml:space="preserve">
<style type="text/css">
	.st0{fill-rule:evenodd;clip-rule:evenodd;}
</style>
<path id="path3291" class="st0" d="M0.5,7.8c0,0-0.1,0.1-0.1,0.2S0.3,8.3,0.3,8.6s-0.1,0.6-0.1,1c0,0.4,0,0.8,0.2,1.3
	c0.1,0.4,0.3,0.9,0.5,1.4c0.2,0.5,0.6,1,1,1.4c0.5,0.6,1.2,1.1,2.1,1.4c0.8,0.3,1.8,0.5,2.8,0.4c0.9-0.1,1.8-0.4,2.5-1
	c0.5-0.4,0.9-0.8,1.3-1.4c0.2-0.2,0.3-0.5,0.4-0.8c0.2-0.4,0.3-0.9,0.4-1.3s0.1-0.8,0.2-1.2c0.1-0.4,0.2-0.8,0.4-1.1
	c0.2-0.3,0.4-0.6,0.7-0.8C12.7,8,13,7.9,13.3,7.8c0.3,0,0.6,0,0.9,0.1c0.3,0.1,0.5,0.3,0.7,0.5c0.2,0.2,0.3,0.5,0.3,0.8
	c0,0.2,0,0.4,0,0.6c0,0.2-0.1,0.4-0.2,0.5c-0.1,0.2-0.2,0.3-0.4,0.5c-0.1,0.1-0.3,0.2-0.5,0.3c-0.2,0.1-0.4,0.1-0.6,0.1
	c-0.2,0-0.4,0-0.6,0l0,0c-0.2,0-0.4-0.1-0.5-0.2c-0.1-0.1-0.2-0.1-0.3-0.2c-0.1-0.1-0.2-0.1-0.2-0.2c0,0-0.1-0.1-0.1,0
	c0,0,0,0,0,0.1c0,0.1,0.1,0.1,0.1,0.2c0.1,0.1,0.2,0.2,0.3,0.3c0.1,0.1,0.3,0.2,0.5,0.3l0,0c0.2,0.1,0.4,0.1,0.7,0.1
	c0.2,0,0.5,0,0.8-0.1c0.2-0.1,0.4-0.2,0.6-0.3c0.2-0.2,0.4-0.3,0.5-0.6c0.1-0.2,0.2-0.4,0.3-0.7c0.1-0.2,0.1-0.5,0.1-0.8
	c0-0.4-0.2-0.8-0.4-1.2c-0.2-0.3-0.6-0.6-1-0.8c-0.4-0.2-0.8-0.2-1.3-0.2c-0.4,0-0.8,0.2-1.2,0.4c-0.4,0.3-0.7,0.7-0.9,1.1
	c-0.2,0.4-0.4,0.8-0.5,1.3c-0.1,0.4-0.2,0.8-0.2,1.2c-0.1,0.4-0.2,0.8-0.3,1.1c-0.1,0.2-0.2,0.4-0.3,0.6c-0.3,0.4-0.6,0.8-1.1,1.1
	c-0.6,0.5-1.4,0.7-2.1,0.8c-0.8,0.1-1.7,0-2.4-0.3s-1.4-0.7-1.9-1.2c-0.4-0.4-0.7-0.8-1-1.2c-0.2-0.4-0.4-0.9-0.6-1.3
	c-0.1-0.4-0.2-0.9-0.2-1.2c0-0.4,0-0.7,0-0.9c0-0.3,0-0.5,0-0.6C0.6,7.9,0.6,7.8,0.5,7.8L0.5,7.8z"/>
<path id="path3327" class="st0" d="M11.1,7.9c0-0.2-2.3-0.4-5.1-0.4c-2.8,0-5.1,0.2-5.1,0.4c0,0.2,2.3,0.4,5.1,0.4
	C8.8,8.3,11.1,8.1,11.1,7.9L11.1,7.9z"/>
<path id="path3339" class="st0" d="M6.9,5.7c0,0,0,0.1,0.2,0.2c0.1,0,0.3,0.1,0.5,0l0,0c0.2,0,0.4-0.1,0.6-0.3
	c0.2-0.2,0.3-0.4,0.4-0.7c0.1-0.2,0.1-0.5,0-0.8C8.5,3.9,8.4,3.7,8.3,3.5c0-0.1-0.1-0.1-0.2-0.2C8,3.1,7.8,3,7.7,2.8
	C7.7,2.7,7.6,2.6,7.6,2.5c0-0.1-0.1-0.2-0.1-0.3l0,0c0-0.2,0-0.4,0.1-0.6s0-0.3,0-0.3c0,0-0.1,0-0.1,0c-0.1,0-0.1,0.1-0.2,0.1
	C7.2,1.5,7.1,1.6,7.1,1.7C7,1.8,6.9,1.9,6.9,2.1l0,0c0,0.2-0.1,0.3,0,0.5C6.9,2.8,6.9,3,7,3.2c0.1,0.3,0.3,0.5,0.4,0.7
	C7.5,3.9,7.5,4,7.6,4c0.1,0.1,0.1,0.2,0.2,0.3c0,0.1,0.1,0.2,0,0.4c0,0.1-0.1,0.3-0.1,0.4C7.6,5.2,7.5,5.3,7.4,5.4l0,0
	C7.3,5.4,7.1,5.5,7.1,5.5C7,5.6,6.9,5.6,6.9,5.7L6.9,5.7z"/>
<path id="path3345" class="st0" d="M4.4,6.7C4.4,6.7,4.4,6.8,4.4,6.7c0.1,0.1,0.2,0.1,0.3,0.1c0.1,0,0.2-0.1,0.3-0.1
	c0.1-0.1,0.2-0.2,0.3-0.3C5.5,6.2,5.6,6,5.7,5.7c0.1-0.2,0-0.5-0.1-0.8C5.5,4.8,5.5,4.6,5.4,4.5C5.3,4.5,5.3,4.4,5.2,4.3
	C5.1,4.2,5,4.1,4.9,4C4.8,3.9,4.8,3.8,4.8,3.7c0-0.1,0-0.2-0.1-0.3l0,0c0-0.2,0-0.4,0-0.5s0-0.2,0-0.3c0,0-0.1,0-0.1,0
	c0,0-0.1,0-0.2,0.1C4.4,2.8,4.3,2.9,4.2,3C4.2,3.1,4.1,3.2,4.1,3.4l0,0C4,3.5,4,3.7,4,3.8c0,0.2,0.1,0.4,0.2,0.5
	c0.1,0.2,0.3,0.4,0.4,0.5C4.6,5,4.6,5,4.7,5.1c0.1,0.1,0.1,0.1,0.1,0.2c0.1,0.1,0.1,0.2,0.1,0.3c0,0.1,0,0.3-0.1,0.4
	C4.7,6.2,4.6,6.3,4.5,6.5C4.4,6.6,4.4,6.6,4.4,6.7L4.4,6.7z"/>
</svg>
