<svg xmlns="http://www.w3.org/2000/svg" viewBox="0 0 216 40"><defs><style>.cls-1{fill:#fff;}</style></defs><g id="Layer_2" data-name="Layer 2"><g id="Layer_1-2" data-name="Layer 1"><path class="cls-1" d="M42.68,5.41h-3.1V1.82A1.6,1.6,0,0,0,38.32.18a20.4,20.4,0,0,0-6.77.23,14.91,14.91,0,0,0-9.47,5.93A14.91,14.91,0,0,0,12.61.41,20.4,20.4,0,0,0,5.84.18,1.6,1.6,0,0,0,4.58,1.82V5.41H1.48A1.57,1.57,0,0,0,0,7.07V38.34a1.72,1.72,0,0,0,.62,1.35A1.38,1.38,0,0,0,2,39.91c.11,0,11.21-4.29,19.49-.06a1.34,1.34,0,0,0,1.23,0c8.26-4.22,19.39,0,19.5.06a1.36,1.36,0,0,0,1.35-.22,1.72,1.72,0,0,0,.62-1.35V7.07A1.57,1.57,0,0,0,42.68,5.41ZM3,36.12V8.73H4.58v22.1a1.75,1.75,0,0,0,.51,1.25,1.38,1.38,0,0,0,1.19.39c.08,0,6.52-1,11.22,2.61A32.33,32.33,0,0,0,3,36.12ZM20.6,33.58a15.28,15.28,0,0,0-8-4.16A20.45,20.45,0,0,0,8.48,29l-.94,0V3.34h0c2.85-.14,9.78.2,13.06,6.43Zm3-23.81c3.27-6.2,10.21-6.56,13.06-6.42V29a20.76,20.76,0,0,0-5.07.39,15.28,15.28,0,0,0-8,4.16V9.77Zm3.1,25.31c4.7-3.61,11.14-2.62,11.22-2.61a1.4,1.4,0,0,0,1.19-.38,1.79,1.79,0,0,0,.51-1.26V8.73H41.2V36.12A32.33,32.33,0,0,0,26.66,35.08Z"/><path class="cls-1" d="M48.36,32.34V30.81h.42a5.67,5.67,0,0,0,1-.09,1.87,1.87,0,0,0,.85-.37,1.72,1.72,0,0,0,.58-.79,3.71,3.71,0,0,0,.2-1.37V10.42A3.8,3.8,0,0,0,51.25,9a1.78,1.78,0,0,0-.58-.79,2,2,0,0,0-.85-.37,5.67,5.67,0,0,0-1-.09h-.42V6.26h9.5V7.79h-.43a6.72,6.72,0,0,0-1,.08,2,2,0,0,0-.85.35A1.74,1.74,0,0,0,55,9a3.15,3.15,0,0,0-.22,1.29V30.52h6.44a2.46,2.46,0,0,0,1.25-.29,2.62,2.62,0,0,0,.85-.77,3.74,3.74,0,0,0,.52-1.06,6.89,6.89,0,0,0,.25-1.18l.31-2.73h1.71l-.22,7.85Z"/><path class="cls-1" d="M74.86,32.7A7.27,7.27,0,0,1,71.68,32a6.39,6.39,0,0,1-2.38-2,9.21,9.21,0,0,1-1.49-3.15,15.68,15.68,0,0,1-.52-4.24q0-5.11,1.88-7.71a6.22,6.22,0,0,1,5.35-2.58,7,7,0,0,1,2.84.55,5.54,5.54,0,0,1,2.13,1.65,7.59,7.59,0,0,1,1.35,2.73,13.88,13.88,0,0,1,.47,3.79V22.8H70.45a17.35,17.35,0,0,0,.35,3.43,7.42,7.42,0,0,0,.94,2.37A3.83,3.83,0,0,0,73.25,30a4.63,4.63,0,0,0,2.06.44,5.21,5.21,0,0,0,1.56-.22,5.26,5.26,0,0,0,1.32-.57,4.91,4.91,0,0,0,1-.81,4.61,4.61,0,0,0,.74-.95,1.13,1.13,0,0,1,.43.44,1.62,1.62,0,0,1,.19.81,2.37,2.37,0,0,1-.35,1.18,3.62,3.62,0,0,1-1.06,1.17,6.05,6.05,0,0,1-1.8.89A7.89,7.89,0,0,1,74.86,32.7Zm-.4-18.34A3.1,3.1,0,0,0,71.66,16a10.89,10.89,0,0,0-1.15,4.83H78a16.37,16.37,0,0,0-.19-2.64,7.73,7.73,0,0,0-.6-2.06,3.34,3.34,0,0,0-1.09-1.32A2.9,2.9,0,0,0,74.46,14.36Z"/><path class="cls-1" d="M90.68,30.81v1.53H81.9V30.81h.27a5.79,5.79,0,0,0,1-.09,1.88,1.88,0,0,0,.84-.37,1.78,1.78,0,0,0,.57-.79,3.47,3.47,0,0,0,.22-1.37V16.79a3.17,3.17,0,0,0-.22-1.3,1.8,1.8,0,0,0-.58-.76,2.15,2.15,0,0,0-.85-.35,5.64,5.64,0,0,0-1-.09h-.09V12.75h5.27l.43,3h.16A7.78,7.78,0,0,1,89,14.05a4.47,4.47,0,0,1,1.19-1,4.34,4.34,0,0,1,1.34-.5A8,8,0,0,1,93,12.4a5.93,5.93,0,0,1,2.3.42,4.32,4.32,0,0,1,1.72,1.28,6.06,6.06,0,0,1,1.08,2.22,12.23,12.23,0,0,1,.38,3.23v8.64a4.24,4.24,0,0,0,.18,1.37,1.71,1.71,0,0,0,.52.79,1.69,1.69,0,0,0,.8.37,5.16,5.16,0,0,0,1,.09h.11v1.53H95.44V19.73a10.37,10.37,0,0,0-.19-2.12A4.37,4.37,0,0,0,94.64,16a2.69,2.69,0,0,0-1.11-1,3.79,3.79,0,0,0-1.67-.33,3.34,3.34,0,0,0-1.87.49,3.55,3.55,0,0,0-1.22,1.3,6,6,0,0,0-.66,1.89,11.63,11.63,0,0,0-.2,2.25v7.71a3.34,3.34,0,0,0,.21,1.29,1.71,1.71,0,0,0,.59.74,1.94,1.94,0,0,0,.85.33,6.59,6.59,0,0,0,1,.08Z"/><path class="cls-1" d="M116.59,28.33a3.31,3.31,0,0,0,.21,1.29,1.82,1.82,0,0,0,.58.76,1.94,1.94,0,0,0,.86.35,6.59,6.59,0,0,0,1,.08h.27v1.53H114l-.36-3.28h-.12a9.41,9.41,0,0,1-.84,1.51,5.3,5.3,0,0,1-1.07,1.14,4.51,4.51,0,0,1-1.37.73,5.45,5.45,0,0,1-1.72.26,6.5,6.5,0,0,1-2.86-.6,5.34,5.34,0,0,1-2.08-1.83,9.11,9.11,0,0,1-1.28-3.15,21.41,21.41,0,0,1-.43-4.54,21.54,21.54,0,0,1,.43-4.56,9.11,9.11,0,0,1,1.28-3.18A5.32,5.32,0,0,1,105.67,13a6.64,6.64,0,0,1,2.86-.59,5.68,5.68,0,0,1,1.7.23,4.63,4.63,0,0,1,1.38.66,5,5,0,0,1,1.09,1,6.86,6.86,0,0,1,.83,1.3h.19c0-.6-.07-1.16-.1-1.68l-.06-1.35q0-.66,0-1v-3a3.17,3.17,0,0,0-.22-1.3,1.71,1.71,0,0,0-.58-.75,1.9,1.9,0,0,0-.85-.35,5.73,5.73,0,0,0-1-.08h-.27V4.58h6Zm-7.51,2a4.3,4.3,0,0,0,2.13-.47,3.41,3.41,0,0,0,1.37-1.44,7.44,7.44,0,0,0,.73-2.42,23.16,23.16,0,0,0,.22-3.45,22.5,22.5,0,0,0-.22-3.37,7.79,7.79,0,0,0-.73-2.45,3.75,3.75,0,0,0-1.38-1.51,4.15,4.15,0,0,0-2.15-.52,3.23,3.23,0,0,0-1.83.52A3.75,3.75,0,0,0,106,16.77a8.42,8.42,0,0,0-.71,2.47,22.64,22.64,0,0,0-.22,3.38,13.82,13.82,0,0,0,.94,5.82A3.2,3.2,0,0,0,109.08,30.36Z"/><path class="cls-1" d="M126.7,23.62l-1.24,3.84a5.2,5.2,0,0,0-.22.84,3.44,3.44,0,0,0-.08.73,1.61,1.61,0,0,0,.53,1.35,2.56,2.56,0,0,0,1.63.43h.75v1.53h-8V30.81h.62a2.39,2.39,0,0,0,.81-.12,1.37,1.37,0,0,0,.61-.43,3.72,3.72,0,0,0,.51-.88c.17-.37.35-.84.55-1.42l7.24-21.7H133l7.37,22.6a6.56,6.56,0,0,0,.39.95,1.93,1.93,0,0,0,.47.6,1.58,1.58,0,0,0,.62.31,3.4,3.4,0,0,0,.83.09h.43v1.53h-9V30.81h.75c1.31,0,2-.58,2-1.75a2.68,2.68,0,0,0-.07-.62c-.05-.22-.12-.46-.2-.74l-1.31-4.08Zm6-8.23c-.34-1.08-.65-2.09-.93-3s-.51-1.86-.69-2.74c-.08.44-.17.87-.27,1.28s-.21.83-.32,1.26-.25.87-.4,1.34l-.51,1.57-2.22,6.72h7.36Z"/><path class="cls-1" d="M161.35,22.51a20.34,20.34,0,0,1-.44,4.57,9.39,9.39,0,0,1-1.28,3.18,5.29,5.29,0,0,1-2.08,1.84,6.5,6.5,0,0,1-2.86.6,6,6,0,0,1-1.7-.23,4.87,4.87,0,0,1-2.46-1.68,6.37,6.37,0,0,1-.82-1.3h-.21l-.57,2.85H143.7V30.81H144a5.67,5.67,0,0,0,1-.09,1.84,1.84,0,0,0,1.42-1.16,3.68,3.68,0,0,0,.21-1.37V8.6a3.36,3.36,0,0,0-.21-1.3,1.86,1.86,0,0,0-.58-.75A1.94,1.94,0,0,0,145,6.2a5.55,5.55,0,0,0-1-.08h-.26V4.58h6v6.71c0,.42,0,.9,0,1.44s0,1.06-.05,1.56,0,1.16-.06,1.76h.13a9.05,9.05,0,0,1,.83-1.51,4.87,4.87,0,0,1,1.06-1.15,4.51,4.51,0,0,1,1.37-.73,5.18,5.18,0,0,1,1.72-.26,6.64,6.64,0,0,1,2.86.59,5.37,5.37,0,0,1,2.08,1.84A9.3,9.3,0,0,1,160.91,18,20,20,0,0,1,161.35,22.51Zm-7.21-7.78a4.3,4.3,0,0,0-2.13.48,3.37,3.37,0,0,0-1.36,1.43,7.76,7.76,0,0,0-.73,2.43,24.48,24.48,0,0,0-.21,3.44,24.07,24.07,0,0,0,.21,3.38,7.93,7.93,0,0,0,.74,2.46,3.58,3.58,0,0,0,1.37,1.5,4.08,4.08,0,0,0,2.14.51,3.23,3.23,0,0,0,1.84-.51,3.67,3.67,0,0,0,1.24-1.5,8.84,8.84,0,0,0,.71-2.47,22.83,22.83,0,0,0,.22-3.4,22.55,22.55,0,0,0-.22-3.4,8.28,8.28,0,0,0-.71-2.42A3.44,3.44,0,0,0,156,15.22,3.34,3.34,0,0,0,154.14,14.73Z"/><path class="cls-1" d="M180.17,22.51q0,5.16-1.95,7.67a6.81,6.81,0,0,1-5.72,2.52,7.86,7.86,0,0,1-3.17-.62,6.22,6.22,0,0,1-2.38-1.9,9,9,0,0,1-1.5-3.18,17.56,17.56,0,0,1-.51-4.49q0-5.11,1.93-7.62a6.81,6.81,0,0,1,5.73-2.49,7.79,7.79,0,0,1,3.17.61,6.1,6.1,0,0,1,2.38,1.88,8.79,8.79,0,0,1,1.5,3.15A17.37,17.37,0,0,1,180.17,22.51Zm-12.08,0a23.78,23.78,0,0,0,.24,3.59,8.89,8.89,0,0,0,.77,2.6,3.9,3.9,0,0,0,1.39,1.57,3.81,3.81,0,0,0,2.08.54,3.75,3.75,0,0,0,2.07-.54A3.86,3.86,0,0,0,176,28.7a8.9,8.9,0,0,0,.76-2.6,25.28,25.28,0,0,0,.23-3.59,23.5,23.5,0,0,0-.24-3.57,8.61,8.61,0,0,0-.77-2.56,3.78,3.78,0,0,0-1.38-1.54,4.4,4.4,0,0,0-4.15,0,3.81,3.81,0,0,0-1.36,1.54,8.32,8.32,0,0,0-.77,2.56A23.5,23.5,0,0,0,168.09,22.51Z"/><path class="cls-1" d="M197,22.51q0,5.16-1.95,7.67a6.79,6.79,0,0,1-5.71,2.52,7.8,7.8,0,0,1-3.17-.62,6.08,6.08,0,0,1-2.38-1.9,8.7,8.7,0,0,1-1.5-3.18,17.1,17.1,0,0,1-.52-4.49q0-5.11,1.94-7.62a6.8,6.8,0,0,1,5.72-2.49,7.79,7.79,0,0,1,3.17.61A6,6,0,0,1,195,14.89a8.63,8.63,0,0,1,1.5,3.15A16.94,16.94,0,0,1,197,22.51Zm-12.08,0a23.78,23.78,0,0,0,.24,3.59,8.59,8.59,0,0,0,.78,2.6,3.61,3.61,0,0,0,3.46,2.11,3.75,3.75,0,0,0,2.07-.54,3.86,3.86,0,0,0,1.37-1.57,8.6,8.6,0,0,0,.76-2.6,25.28,25.28,0,0,0,.23-3.59,23.5,23.5,0,0,0-.24-3.57,8.62,8.62,0,0,0-.76-2.56,3.78,3.78,0,0,0-1.38-1.54,4,4,0,0,0-2.08-.52,3.92,3.92,0,0,0-2.07.52A3.83,3.83,0,0,0,186,16.38a8.61,8.61,0,0,0-.77,2.56A23.5,23.5,0,0,0,185,22.51Z"/><path class="cls-1" d="M207.94,20.59l4.35,7.22A9.15,9.15,0,0,0,214,30a2.78,2.78,0,0,0,1.93.77h.1v1.53h-.46q-1.42,0-2.34-.09a4.13,4.13,0,0,1-1.58-.47,4,4,0,0,1-1.23-1.07,15.83,15.83,0,0,1-1.24-1.92l-3.27-5.72-2.4,2v3.31a3.34,3.34,0,0,0,.21,1.29,1.76,1.76,0,0,0,.58.74,2,2,0,0,0,.86.33,6.59,6.59,0,0,0,1,.08h.1v1.53h-8.78V30.81h.26a5.67,5.67,0,0,0,1-.09,1.84,1.84,0,0,0,.84-.37,1.79,1.79,0,0,0,.58-.79,3.68,3.68,0,0,0,.21-1.37V8.6a3.36,3.36,0,0,0-.21-1.3,1.78,1.78,0,0,0-.58-.75,1.94,1.94,0,0,0-.86-.35,5.55,5.55,0,0,0-1-.08h-.26V4.58h6v14.1c0,.33,0,.76,0,1.27s0,1-.05,1.53,0,1.17-.06,1.8l4.08-5c.35-.43.64-.82.87-1.15s.41-.63.55-.88a3.21,3.21,0,0,0,.28-.67,1.85,1.85,0,0,0,.08-.56.57.57,0,0,0-.39-.6,4,4,0,0,0-1.2-.13V12.75h7.2v1.54a3.53,3.53,0,0,0-2.22.89,16,16,0,0,0-2.37,2.52Z"/></g></g></svg>