<svg xmlns="http://www.w3.org/2000/svg" viewBox="0 0 123.64 100"><defs><style>.cls-1{fill:#fff;}</style></defs><g id="Layer_2" data-name="Layer 2"><g id="Layer_1-2" data-name="Layer 1"><path class="cls-1" d="M119.49,13.52h-8.67v-9a4.14,4.14,0,0,0-3.53-4.1,63.48,63.48,0,0,0-19,.57C77,3.08,68,8.17,61.82,15.85,55.69,8.17,46.65,3.08,35.31,1a63.41,63.41,0,0,0-19-.57,4.14,4.14,0,0,0-3.53,4.1v9H4.15A4.15,4.15,0,0,0,0,17.67V95.85a4.16,4.16,0,0,0,5.51,3.92c.31-.11,31.4-10.72,54.59-.14a4.21,4.21,0,0,0,3.44,0c23.12-10.55,54.27,0,54.58.14a4.33,4.33,0,0,0,1.37.23,4.16,4.16,0,0,0,4.15-4.15V17.67A4.15,4.15,0,0,0,119.49,13.52ZM8.3,90.3V21.82h4.52V77.07a4.13,4.13,0,0,0,4.75,4.1c.23,0,18.25-2.5,31.42,6.53C32.77,84.93,16.54,88.14,8.3,90.3ZM57.67,84c-5.8-5.24-13.35-8.78-22.36-10.42a65,65,0,0,0-11.56-1c-.95,0-1.84,0-2.64,0V8.36h0c8-.36,27.37.49,36.56,16.06ZM66,24.42C75.12,8.92,94.55,8,102.52,8.37v64.2a66,66,0,0,0-14.2,1C79.32,75.18,71.77,78.72,66,84V24.42ZM74.63,87.7c13.17-9,31.2-6.56,31.43-6.53a4.15,4.15,0,0,0,4.76-4.1V21.82h4.52V90.3C107.1,88.14,90.85,84.93,74.63,87.7Z"/></g></g></svg>